<svg width="42" height="42" viewBox="0 0 42 42" fill="none" xmlns="http://www.w3.org/2000/svg">
<circle cx="21" cy="21" r="21" fill="white"/>
<path d="M13 20C12.4477 20 12 20.4477 12 21C12 21.5523 12.4477 22 13 22V20ZM29.7071 21.7071C30.0976 21.3166 30.0976 20.6834 29.7071 20.2929L23.3431 13.9289C22.9526 13.5384 22.3195 13.5384 21.9289 13.9289C21.5384 14.3195 21.5384 14.9526 21.9289 15.3431L27.5858 21L21.9289 26.6569C21.5384 27.0474 21.5384 27.6805 21.9289 28.0711C22.3195 28.4616 22.9526 28.4616 23.3431 28.0711L29.7071 21.7071ZM13 22L29 22V20L13 20V22Z" fill="#1A1B1E"/>
</svg>
