<svg width="50" height="50" viewBox="0 0 50 50" fill="none" xmlns="http://www.w3.org/2000/svg">
<circle cx="25" cy="25" r="25" fill="#E68900"/>
<path d="M15 24C14.4477 24 14 24.4477 14 25C14 25.5523 14.4477 26 15 26V24ZM34.7241 25.7071C35.1146 25.3166 35.1146 24.6834 34.7241 24.2929L28.3601 17.9289C27.9696 17.5384 27.3364 17.5384 26.9459 17.9289C26.5554 18.3195 26.5554 18.9526 26.9459 19.3431L32.6027 25L26.9459 30.6569C26.5554 31.0474 26.5554 31.6805 26.9459 32.0711C27.3364 32.4616 27.9696 32.4616 28.3601 32.0711L34.7241 25.7071ZM15 26H34.017V24H15V26Z" fill="white"/>
</svg>
